<svg width="20" height="20" viewBox="0 0 20 20" fill="none" xmlns="http://www.w3.org/2000/svg">
<path fill-rule="evenodd" clip-rule="evenodd" d="M7.5 3.25C5.84315 3.25 4.5 4.59315 4.5 6.25C4.5 7.90685 5.84315 9.25 7.5 9.25C9.15685 9.25 10.5 7.90685 10.5 6.25C10.5 4.59315 9.15685 3.25 7.5 3.25ZM3 6.25C3 3.76472 5.01472 1.75 7.5 1.75C9.98528 1.75 12 3.76472 12 6.25C12 8.73528 9.98528 10.75 7.5 10.75C5.01472 10.75 3 8.73528 3 6.25ZM7.5 13.25C6.37283 13.25 5.29183 13.6978 4.4948 14.4948C3.69777 15.2918 3.25 16.3728 3.25 17.5C3.25 17.9142 2.91421 18.25 2.5 18.25C2.08579 18.25 1.75 17.9142 1.75 17.5C1.75 15.975 2.3558 14.5125 3.43414 13.4341C4.51247 12.3558 5.97501 11.75 7.5 11.75C9.02499 11.75 10.4875 12.3558 11.5659 13.4341C12.6442 14.5125 13.25 15.975 13.25 17.5C13.25 17.9142 12.9142 18.25 12.5 18.25C12.0858 18.25 11.75 17.9142 11.75 17.5C11.75 16.3728 11.3022 15.2918 10.5052 14.4948C9.70817 13.6978 8.62717 13.25 7.5 13.25ZM13.5473 3.98534C13.1503 3.86719 12.7326 4.09324 12.6145 4.49025C12.4963 4.88725 12.7224 5.30487 13.1194 5.42302C14.0149 5.68954 14.6667 6.51967 14.6667 7.50007C14.6667 8.69668 13.6966 9.66673 12.5 9.66673C12.0858 9.66673 11.75 10.0025 11.75 10.4167V11.2501C11.75 11.449 11.829 11.6397 11.9697 11.7804C12.1103 11.921 12.3011 12.0001 12.5 12.0001C13.4062 12.0001 14.2752 12.36 14.9159 13.0008C15.5567 13.6415 15.9167 14.5106 15.9167 15.4167C15.9167 15.8309 16.2525 16.1667 16.6667 16.1667C17.0809 16.1667 17.4167 15.8309 17.4167 15.4167C17.4167 14.1128 16.8987 12.8622 15.9766 11.9401C15.4531 11.4166 14.8236 11.0233 14.1386 10.7811C15.341 10.1795 16.1667 8.93618 16.1667 7.50007C16.1667 5.83795 15.0613 4.43595 13.5473 3.98534Z" fill="#262626"/>
</svg>
